<svg width="36" height="36" viewBox="0 0 36 36" fill="none" xmlns="http://www.w3.org/2000/svg">
<path d="M5.25 6.75H8.30848C9.0042 6.75 9.35206 6.75 9.61395 6.93876C9.87584 7.12752 9.98584 7.45753 10.2058 8.11754L11.25 11.25" stroke="#222222" stroke-linecap="round"/>
<path d="M26.25 26.25H12.0764C11.2293 26.25 10.8058 26.25 10.5399 26.0519C10.3751 25.9291 10.2521 25.7585 10.1878 25.5633C10.0839 25.2484 10.2178 24.8466 10.4857 24.043V24.043C10.7818 23.1547 10.9298 22.7105 11.2205 22.3949C11.4035 22.1963 11.6248 22.0368 11.8712 21.926C12.2625 21.75 12.7307 21.75 13.6671 21.75H21.75" stroke="#222222" stroke-linecap="round" stroke-linejoin="round"/>
<path d="M22.4287 21.75H15.3876C14.1084 21.75 13.4688 21.75 12.9678 21.4197C12.4669 21.0894 12.2149 20.5015 11.711 19.3257L10.0422 15.4318C9.23269 13.5429 8.82794 12.5985 9.27255 11.9243C9.71715 11.25 10.7446 11.25 12.7996 11.25H25.5805C27.8795 11.25 29.029 11.25 29.4626 11.9971C29.8962 12.7442 29.3258 13.7423 28.1852 15.7384L25.9017 19.7346C25.3397 20.7179 25.0588 21.2096 24.5932 21.4798C24.1276 21.75 23.5613 21.75 22.4287 21.75Z" stroke="#222222" stroke-linecap="round"/>
<circle cx="25.5" cy="30" r="1.5" fill="#222222"/>
<circle cx="13.5" cy="30" r="1.5" fill="#222222"/>
</svg>
