<svg width="32" height="32" viewBox="0 0 32 32" fill="none" xmlns="http://www.w3.org/2000/svg">
<path d="M4.66663 6H7.22511C7.92083 6 8.26869 6 8.53058 6.18876C8.79246 6.37752 8.90247 6.70753 9.12247 7.36754L9.99996 10" stroke="#222222" stroke-linecap="round"/>
<path d="M23.3333 23.3333H10.7345C10.1233 23.3333 9.81775 23.3333 9.60644 23.2276C9.31329 23.0808 9.11067 22.7997 9.06417 22.4752C9.03064 22.2413 9.12728 21.9514 9.32055 21.3716V21.3716C9.53467 20.7292 9.64173 20.408 9.82312 20.1582C10.0746 19.812 10.4304 19.5555 10.8384 19.4264C11.1328 19.3333 11.4713 19.3333 12.1485 19.3333H19.3333" stroke="#222222" stroke-linecap="round" stroke-linejoin="round"/>
<path d="M19.6787 19.3333H13.971C12.6917 19.3333 12.0521 19.3333 11.5512 19.003C11.0502 18.6727 10.7983 18.0848 10.2944 16.909L9.12556 14.1818C8.31606 12.2929 7.91131 11.3485 8.35592 10.6743C8.80053 10 9.82802 10 11.883 10H22.1638C24.4629 10 25.6124 10 26.046 10.7471C26.4795 11.4942 25.9092 12.4923 24.7686 14.4884L23.1517 17.3179C22.5898 18.3013 22.3088 18.793 21.8432 19.0632C21.3777 19.3333 20.8114 19.3333 19.6787 19.3333Z" stroke="#222222" stroke-linecap="round"/>
<circle cx="22.6667" cy="26.6667" r="1.33333" fill="#222222"/>
<circle cx="12" cy="26.6667" r="1.33333" fill="#222222"/>
</svg>
