<svg width="175" height="47" viewBox="0 0 175 47" fill="none" xmlns="http://www.w3.org/2000/svg">
<path d="M4.21 45.05C3.69 45.05 3.22333 44.9367 2.81 44.71C2.40333 44.4767 2.08333 44.16 1.85 43.76C1.61667 43.3533 1.5 42.89 1.5 42.37C1.5 41.8433 1.61667 41.38 1.85 40.98C2.08333 40.58 2.40333 40.2667 2.81 40.04C3.22333 39.8133 3.69 39.7 4.21 39.7C4.65667 39.7 5.06 39.7867 5.42 39.96C5.78 40.1333 6.06333 40.3933 6.27 40.74L5.74 41.1C5.56 40.8333 5.33667 40.6367 5.07 40.51C4.80333 40.3833 4.51333 40.32 4.2 40.32C3.82667 40.32 3.49 40.4067 3.19 40.58C2.89 40.7467 2.65333 40.9833 2.48 41.29C2.30667 41.5967 2.22 41.9567 2.22 42.37C2.22 42.7833 2.30667 43.1433 2.48 43.45C2.65333 43.7567 2.89 43.9967 3.19 44.17C3.49 44.3367 3.82667 44.42 4.2 44.42C4.51333 44.42 4.80333 44.3567 5.07 44.23C5.33667 44.1033 5.56 43.91 5.74 43.65L6.27 44.01C6.06333 44.35 5.78 44.61 5.42 44.79C5.06 44.9633 4.65667 45.05 4.21 45.05ZM9.71688 45.05C9.21021 45.05 8.75354 44.9367 8.34688 44.71C7.94688 44.4767 7.63021 44.16 7.39688 43.76C7.16354 43.3533 7.04688 42.89 7.04688 42.37C7.04688 41.8433 7.16354 41.38 7.39688 40.98C7.63021 40.58 7.94688 40.2667 8.34688 40.04C8.74688 39.8133 9.20354 39.7 9.71688 39.7C10.2369 39.7 10.6969 39.8133 11.0969 40.04C11.5035 40.2667 11.8202 40.58 12.0469 40.98C12.2802 41.38 12.3969 41.8433 12.3969 42.37C12.3969 42.89 12.2802 43.3533 12.0469 43.76C11.8202 44.16 11.5035 44.4767 11.0969 44.71C10.6902 44.9367 10.2302 45.05 9.71688 45.05ZM9.71688 44.42C10.0969 44.42 10.4335 44.3367 10.7269 44.17C11.0202 43.9967 11.2502 43.7567 11.4169 43.45C11.5902 43.1367 11.6769 42.7767 11.6769 42.37C11.6769 41.9567 11.5902 41.5967 11.4169 41.29C11.2502 40.9833 11.0202 40.7467 10.7269 40.58C10.4335 40.4067 10.1002 40.32 9.72688 40.32C9.35354 40.32 9.02021 40.4067 8.72688 40.58C8.43354 40.7467 8.20021 40.9833 8.02688 41.29C7.85354 41.5967 7.76688 41.9567 7.76688 42.37C7.76688 42.7767 7.85354 43.1367 8.02688 43.45C8.20021 43.7567 8.43354 43.9967 8.72688 44.17C9.02021 44.3367 9.35021 44.42 9.71688 44.42ZM13.9143 45V39.75H14.6243V42.07H17.9343V39.75H18.6443V45H17.9343V42.68H14.6243V45H13.9143ZM20.6623 45V39.75H21.3723V44.38H24.5823V39.75H25.2923V45H20.6623ZM25.4723 46.27V44.94L25.6523 45H24.5823V44.38H26.1423V46.27H25.4723ZM29.7483 45.05C29.2016 45.05 28.7216 44.9367 28.3083 44.71C27.8949 44.4767 27.5716 44.16 27.3383 43.76C27.1049 43.3533 26.9883 42.89 26.9883 42.37C26.9883 41.85 27.0983 41.39 27.3183 40.99C27.5449 40.59 27.8516 40.2767 28.2383 40.05C28.6316 39.8167 29.0716 39.7 29.5583 39.7C30.0516 39.7 30.4883 39.8133 30.8683 40.04C31.2549 40.26 31.5583 40.5733 31.7783 40.98C31.9983 41.38 32.1083 41.8433 32.1083 42.37C32.1083 42.4033 32.1049 42.44 32.0983 42.48C32.0983 42.5133 32.0983 42.55 32.0983 42.59H27.5283V42.06H31.7183L31.4383 42.27C31.4383 41.89 31.3549 41.5533 31.1883 41.26C31.0283 40.96 30.8083 40.7267 30.5283 40.56C30.2483 40.3933 29.9249 40.31 29.5583 40.31C29.1983 40.31 28.8749 40.3933 28.5883 40.56C28.3016 40.7267 28.0783 40.96 27.9183 41.26C27.7583 41.56 27.6783 41.9033 27.6783 42.29V42.4C27.6783 42.8 27.7649 43.1533 27.9383 43.46C28.1183 43.76 28.3649 43.9967 28.6783 44.17C28.9983 44.3367 29.3616 44.42 29.7683 44.42C30.0883 44.42 30.3849 44.3633 30.6583 44.25C30.9383 44.1367 31.1783 43.9633 31.3783 43.73L31.7783 44.19C31.5449 44.47 31.2516 44.6833 30.8983 44.83C30.5516 44.9767 30.1683 45.05 29.7483 45.05ZM34.9434 45.06C34.5634 45.06 34.1868 45.0067 33.8134 44.9C33.4401 44.7933 33.1101 44.63 32.8234 44.41L33.0534 43.88C33.3068 44.0667 33.6001 44.21 33.9334 44.31C34.2668 44.4033 34.5968 44.45 34.9234 44.45C35.2501 44.4433 35.5334 44.3967 35.7734 44.31C36.0134 44.2233 36.2001 44.1033 36.3334 43.95C36.4668 43.7967 36.5334 43.6233 36.5334 43.43C36.5334 43.15 36.4068 42.9333 36.1534 42.78C35.9001 42.62 35.5534 42.54 35.1134 42.54H34.2134V42.02H35.0634C35.3234 42.02 35.5534 41.9867 35.7534 41.92C35.9534 41.8533 36.1068 41.7567 36.2134 41.63C36.3268 41.5033 36.3834 41.3533 36.3834 41.18C36.3834 40.9933 36.3168 40.8333 36.1834 40.7C36.0568 40.5667 35.8801 40.4667 35.6534 40.4C35.4268 40.3333 35.1701 40.3 34.8834 40.3C34.6234 40.3067 34.3534 40.3467 34.0734 40.42C33.7934 40.4867 33.5168 40.59 33.2434 40.73L33.0434 40.18C33.3501 40.02 33.6534 39.9 33.9534 39.82C34.2601 39.7333 34.5668 39.69 34.8734 39.69C35.2934 39.6767 35.6701 39.7267 36.0034 39.84C36.3434 39.9533 36.6134 40.1167 36.8134 40.33C37.0134 40.5367 37.1134 40.7867 37.1134 41.08C37.1134 41.34 37.0334 41.5667 36.8734 41.76C36.7134 41.9533 36.5001 42.1033 36.2334 42.21C35.9668 42.3167 35.6634 42.37 35.3234 42.37L35.3534 42.18C35.9534 42.18 36.4201 42.2967 36.7534 42.53C37.0934 42.7633 37.2634 43.08 37.2634 43.48C37.2634 43.7933 37.1601 44.07 36.9534 44.31C36.7468 44.5433 36.4668 44.7267 36.1134 44.86C35.7668 44.9933 35.3768 45.06 34.9434 45.06ZM42.1352 45V43.84L42.1052 43.65V41.71C42.1052 41.2633 41.9786 40.92 41.7252 40.68C41.4786 40.44 41.1086 40.32 40.6152 40.32C40.2752 40.32 39.9519 40.3767 39.6452 40.49C39.3386 40.6033 39.0786 40.7533 38.8652 40.94L38.5452 40.41C38.8119 40.1833 39.1319 40.01 39.5052 39.89C39.8786 39.7633 40.2719 39.7 40.6852 39.7C41.3652 39.7 41.8886 39.87 42.2552 40.21C42.6286 40.5433 42.8152 41.0533 42.8152 41.74V45H42.1352ZM40.3252 45.05C39.9319 45.05 39.5886 44.9867 39.2952 44.86C39.0086 44.7267 38.7886 44.5467 38.6352 44.32C38.4819 44.0867 38.4052 43.82 38.4052 43.52C38.4052 43.2467 38.4686 43 38.5952 42.78C38.7286 42.5533 38.9419 42.3733 39.2352 42.24C39.5352 42.1 39.9352 42.03 40.4352 42.03H42.2452V42.56H40.4552C39.9486 42.56 39.5952 42.65 39.3952 42.83C39.2019 43.01 39.1052 43.2333 39.1052 43.5C39.1052 43.8 39.2219 44.04 39.4552 44.22C39.6886 44.4 40.0152 44.49 40.4352 44.49C40.8352 44.49 41.1786 44.4 41.4652 44.22C41.7586 44.0333 41.9719 43.7667 42.1052 43.42L42.2652 43.91C42.1319 44.2567 41.8986 44.5333 41.5652 44.74C41.2386 44.9467 40.8252 45.05 40.3252 45.05ZM43.8453 45L46.0653 42.12L46.0553 42.47L43.9453 39.75H44.7453L46.4753 42L46.1753 41.99L47.9053 39.75H48.6853L46.5553 42.5L46.5653 42.12L48.8053 45H47.9953L46.1653 42.6L46.4453 42.64L44.6453 45H43.8453ZM49.969 45V39.75H50.679V43.92L54.189 39.75H54.819V45H54.109V40.82L50.609 45H49.969ZM59.0538 45.05C58.5338 45.05 58.0671 44.9367 57.6538 44.71C57.2471 44.4767 56.9271 44.16 56.6938 43.76C56.4604 43.3533 56.3438 42.89 56.3438 42.37C56.3438 41.8433 56.4604 41.38 56.6938 40.98C56.9271 40.58 57.2471 40.2667 57.6538 40.04C58.0671 39.8133 58.5338 39.7 59.0538 39.7C59.5004 39.7 59.9038 39.7867 60.2638 39.96C60.6238 40.1333 60.9071 40.3933 61.1138 40.74L60.5838 41.1C60.4038 40.8333 60.1804 40.6367 59.9138 40.51C59.6471 40.3833 59.3571 40.32 59.0438 40.32C58.6704 40.32 58.3338 40.4067 58.0338 40.58C57.7338 40.7467 57.4971 40.9833 57.3238 41.29C57.1504 41.5967 57.0638 41.9567 57.0638 42.37C57.0638 42.7833 57.1504 43.1433 57.3238 43.45C57.4971 43.7567 57.7338 43.9967 58.0338 44.17C58.3338 44.3367 58.6704 44.42 59.0438 44.42C59.3571 44.42 59.6471 44.3567 59.9138 44.23C60.1804 44.1033 60.4038 43.91 60.5838 43.65L61.1138 44.01C60.9071 44.35 60.6238 44.61 60.2638 44.79C59.9038 44.9633 59.5004 45.05 59.0538 45.05ZM62.4885 45V39.75H63.1985V42.07H66.5085V39.75H67.2185V45H66.5085V42.68H63.1985V45H62.4885ZM69.2366 45V39.75H69.9466V45H69.2366ZM69.5966 38.59C69.4499 38.59 69.3266 38.54 69.2266 38.44C69.1266 38.34 69.0766 38.22 69.0766 38.08C69.0766 37.94 69.1266 37.8233 69.2266 37.73C69.3266 37.63 69.4499 37.58 69.5966 37.58C69.7432 37.58 69.8666 37.6267 69.9666 37.72C70.0666 37.8133 70.1166 37.93 70.1166 38.07C70.1166 38.2167 70.0666 38.34 69.9666 38.44C69.8732 38.54 69.7499 38.59 69.5966 38.59ZM76.7481 45.05C76.2415 45.05 75.7848 44.9367 75.3781 44.71C74.9781 44.4767 74.6615 44.16 74.4281 43.76C74.1948 43.3533 74.0781 42.89 74.0781 42.37C74.0781 41.8433 74.1948 41.38 74.4281 40.98C74.6615 40.58 74.9781 40.2667 75.3781 40.04C75.7781 39.8133 76.2348 39.7 76.7481 39.7C77.2681 39.7 77.7281 39.8133 78.1281 40.04C78.5348 40.2667 78.8515 40.58 79.0781 40.98C79.3115 41.38 79.4281 41.8433 79.4281 42.37C79.4281 42.89 79.3115 43.3533 79.0781 43.76C78.8515 44.16 78.5348 44.4767 78.1281 44.71C77.7215 44.9367 77.2615 45.05 76.7481 45.05ZM76.7481 44.42C77.1281 44.42 77.4648 44.3367 77.7581 44.17C78.0515 43.9967 78.2815 43.7567 78.4481 43.45C78.6215 43.1367 78.7081 42.7767 78.7081 42.37C78.7081 41.9567 78.6215 41.5967 78.4481 41.29C78.2815 40.9833 78.0515 40.7467 77.7581 40.58C77.4648 40.4067 77.1315 40.32 76.7581 40.32C76.3848 40.32 76.0515 40.4067 75.7581 40.58C75.4648 40.7467 75.2315 40.9833 75.0581 41.29C74.8848 41.5967 74.7981 41.9567 74.7981 42.37C74.7981 42.7767 74.8848 43.1367 75.0581 43.45C75.2315 43.7567 75.4648 43.9967 75.7581 44.17C76.0515 44.3367 76.3815 44.42 76.7481 44.42ZM84.7955 45L82.6355 42.4L83.2255 42.05L85.6355 45H84.7955ZM80.9455 45V39.75H81.6555V45H80.9455ZM81.4355 42.66V42.05H83.1255V42.66H81.4355ZM83.2855 42.45L82.6255 42.35L84.7155 39.75H85.4855L83.2855 42.45ZM86.5434 46.99C86.2967 46.99 86.06 46.95 85.8334 46.87C85.6134 46.79 85.4234 46.67 85.2634 46.51L85.5934 45.98C85.7267 46.1067 85.87 46.2033 86.0234 46.27C86.1834 46.3433 86.36 46.38 86.5534 46.38C86.7867 46.38 86.9867 46.3133 87.1534 46.18C87.3267 46.0533 87.49 45.8267 87.6434 45.5L87.9834 44.73L88.0634 44.62L90.2234 39.75H90.9234L88.2934 45.63C88.1467 45.97 87.9834 46.24 87.8034 46.44C87.63 46.64 87.44 46.78 87.2334 46.86C87.0267 46.9467 86.7967 46.99 86.5434 46.99ZM87.9434 45.15L85.5234 39.75H86.2634L88.4034 44.57L87.9434 45.15ZM90.8449 44.99L90.8949 44.38C90.9416 44.3867 90.9849 44.3967 91.0249 44.41C91.0716 44.4167 91.1116 44.42 91.1449 44.42C91.3583 44.42 91.5283 44.34 91.6549 44.18C91.7883 44.02 91.8883 43.8067 91.9549 43.54C92.0216 43.2733 92.0683 42.9733 92.0949 42.64C92.1216 42.3 92.1449 41.96 92.1649 41.62L92.2549 39.75H96.1049V45H95.3949V40.16L95.5749 40.37H92.7149L92.8849 40.15L92.8049 41.67C92.7849 42.1233 92.7483 42.5567 92.6949 42.97C92.6483 43.3833 92.5716 43.7467 92.4649 44.06C92.3649 44.3733 92.2249 44.62 92.0449 44.8C91.8649 44.9733 91.6349 45.06 91.3549 45.06C91.2749 45.06 91.1916 45.0533 91.1049 45.04C91.0249 45.0267 90.9383 45.01 90.8449 44.99ZM101.513 45V43.11L101.643 43.26H99.8633C99.1899 43.26 98.6633 43.1133 98.2833 42.82C97.9033 42.5267 97.7133 42.1 97.7133 41.54C97.7133 40.94 97.9166 40.4933 98.3233 40.2C98.7299 39.9 99.2733 39.75 99.9533 39.75H102.163V45H101.513ZM97.6733 45L99.1133 42.98H99.8533L98.4433 45H97.6733ZM101.513 42.9V40.16L101.643 40.37H99.9733C99.4866 40.37 99.1066 40.4633 98.8333 40.65C98.5666 40.8367 98.4333 41.14 98.4333 41.56C98.4333 42.34 98.9299 42.73 99.9233 42.73H101.643L101.513 42.9ZM106.898 45.05C106.444 45.05 106.034 44.9467 105.668 44.74C105.301 44.5267 105.008 44.2233 104.788 43.83C104.574 43.43 104.468 42.9433 104.468 42.37C104.468 41.7967 104.574 41.3133 104.788 40.92C105.001 40.52 105.291 40.2167 105.658 40.01C106.024 39.8033 106.438 39.7 106.898 39.7C107.398 39.7 107.844 39.8133 108.238 40.04C108.638 40.26 108.951 40.5733 109.178 40.98C109.404 41.38 109.518 41.8433 109.518 42.37C109.518 42.9033 109.404 43.37 109.178 43.77C108.951 44.17 108.638 44.4833 108.238 44.71C107.844 44.9367 107.398 45.05 106.898 45.05ZM104.188 46.94V39.75H104.868V41.33L104.798 42.38L104.898 43.44V46.94H104.188ZM106.848 44.42C107.221 44.42 107.554 44.3367 107.848 44.17C108.141 43.9967 108.374 43.7567 108.548 43.45C108.721 43.1367 108.808 42.7767 108.808 42.37C108.808 41.9633 108.721 41.6067 108.548 41.3C108.374 40.9933 108.141 40.7533 107.848 40.58C107.554 40.4067 107.221 40.32 106.848 40.32C106.474 40.32 106.138 40.4067 105.838 40.58C105.544 40.7533 105.311 40.9933 105.138 41.3C104.971 41.6067 104.888 41.9633 104.888 42.37C104.888 42.7767 104.971 43.1367 105.138 43.45C105.311 43.7567 105.544 43.9967 105.838 44.17C106.138 44.3367 106.474 44.42 106.848 44.42ZM111.043 45V39.75H111.753V43.92L115.263 39.75H115.893V45H115.183V40.82L111.683 45H111.043Z" fill="white"/>
<path d="M3.35352 27C3.03255 27 2.83333 26.8893 2.75586 26.668C2.67839 26.4355 2.63965 26.1589 2.63965 25.8379V9.40234C2.63965 9.14779 2.70605 8.9375 2.83887 8.77148C2.98275 8.5944 3.15983 8.50586 3.37012 8.50586C3.72428 8.50586 4.06185 8.74382 4.38281 9.21973L14.6758 24.6924L24.9688 9.21973C25.2786 8.74382 25.6162 8.50586 25.9814 8.50586C26.1917 8.50586 26.3633 8.5944 26.4961 8.77148C26.64 8.9375 26.7119 9.14779 26.7119 9.40234V25.8379C26.7119 26.1589 26.6732 26.4355 26.5957 26.668C26.5182 26.8893 26.319 27 25.998 27C25.7214 27 25.5332 26.8893 25.4336 26.668C25.3451 26.4355 25.3008 26.1589 25.3008 25.8379V11.0957L15.4893 25.5723C15.2236 25.9486 14.9525 26.1367 14.6758 26.1367C14.377 26.1367 14.1058 25.9486 13.8623 25.5723L4.05078 11.0957V25.8379C4.05078 26.1589 4.00098 26.4355 3.90137 26.668C3.81283 26.8893 3.63021 27 3.35352 27ZM39.0967 32.5449C37.8571 32.5449 36.8665 32.4619 36.125 32.2959C35.3835 32.1299 34.7969 31.9251 34.3652 31.6816C33.9447 31.4382 33.5905 31.2057 33.3027 30.9844C33.2142 30.9069 33.1699 30.8018 33.1699 30.6689C33.1699 30.3037 33.3415 30.1211 33.6846 30.1211C33.7731 30.1211 33.8672 30.1543 33.9668 30.2207C34.3874 30.5306 34.974 30.8294 35.7266 31.1172C36.4902 31.416 37.6136 31.5654 39.0967 31.5654C40.624 31.5654 41.8193 31.333 42.6826 30.8682C43.5459 30.4144 44.1546 29.6507 44.5088 28.5771C44.874 27.5036 45.0566 26.0371 45.0566 24.1777C44.8796 24.8529 44.5309 25.3896 44.0107 25.7881C43.5016 26.1865 42.904 26.4854 42.2178 26.6846C41.5426 26.8838 40.8509 27.0111 40.1426 27.0664C39.4453 27.1328 38.8145 27.166 38.25 27.166C36.6673 27.166 35.4001 26.9668 34.4482 26.5684C33.5075 26.1589 32.8268 25.4727 32.4062 24.5098C31.9967 23.5469 31.792 22.2354 31.792 20.5752V15.4785C31.792 15.1908 31.8252 14.9196 31.8916 14.665C31.958 14.4105 32.1406 14.2832 32.4395 14.2832C32.7604 14.2832 32.9541 14.4105 33.0205 14.665C33.0869 14.9196 33.1201 15.1908 33.1201 15.4785V20.5752C33.1201 22.014 33.2529 23.1429 33.5186 23.9619C33.7952 24.7809 34.2988 25.3564 35.0293 25.6885C35.7708 26.0205 36.8444 26.1865 38.25 26.1865C39.1022 26.1865 40.0042 26.1035 40.9561 25.9375C41.9189 25.7604 42.7822 25.445 43.5459 24.9912C44.3096 24.5374 44.8132 23.8789 45.0566 23.0156V15.4785C45.0566 15.1908 45.0954 14.9196 45.1729 14.665C45.2503 14.4105 45.4219 14.2832 45.6875 14.2832C46.0085 14.2832 46.2021 14.4105 46.2686 14.665C46.346 14.9196 46.3848 15.1908 46.3848 15.4785V23.6299C46.3848 25.8988 46.1357 27.6807 45.6377 28.9756C45.1507 30.2816 44.3704 31.2002 43.2969 31.7314C42.2344 32.2738 40.8343 32.5449 39.0967 32.5449ZM51.6973 27C51.3763 27 51.166 26.8783 51.0664 26.6348C50.9779 26.3802 50.9336 26.0814 50.9336 25.7383V9.12012C50.9336 8.79915 50.9945 8.61654 51.1162 8.57227C51.238 8.52799 51.4593 8.50586 51.7803 8.50586H57.292C58.8083 8.50586 60.1862 8.58333 61.4258 8.73828C62.6654 8.88216 63.7334 9.18099 64.6299 9.63477C65.5264 10.0885 66.2181 10.7526 66.7051 11.627C67.1921 12.4902 67.4355 13.6468 67.4355 15.0967C67.4355 16.6019 67.1644 17.7751 66.6221 18.6162C66.0908 19.4463 65.3548 20.0495 64.4141 20.4258C63.4733 20.791 62.3942 21.0179 61.1768 21.1064C59.9593 21.1839 58.6644 21.2227 57.292 21.2227H52.3447V25.7383C52.3447 26.0592 52.3005 26.3525 52.2119 26.6182C52.1344 26.8727 51.9629 27 51.6973 27ZM52.3447 20.1934H57.292C59.3063 20.1934 60.9554 20.0938 62.2393 19.8945C63.5342 19.6842 64.486 19.2194 65.0947 18.5C65.7145 17.7806 66.0244 16.6462 66.0244 15.0967C66.0244 13.5583 65.7145 12.3962 65.0947 11.6104C64.4749 10.8245 63.5176 10.2933 62.2227 10.0166C60.9388 9.73991 59.2952 9.60156 57.292 9.60156H52.3447V20.1934ZM78.127 27.166C76.0905 27.166 74.4691 26.9004 73.2627 26.3691C72.0563 25.8379 71.1875 25.0853 70.6562 24.1113C70.1361 23.1263 69.876 21.9587 69.876 20.6084C69.876 18.262 70.54 16.5687 71.8682 15.5283C73.2074 14.4769 75.2936 13.9512 78.127 13.9512C80.9603 13.9512 83.041 14.4769 84.3691 15.5283C85.7083 16.5687 86.3779 18.262 86.3779 20.6084C86.3779 21.9587 86.1123 23.1263 85.5811 24.1113C85.0609 25.0853 84.1976 25.8379 82.9912 26.3691C81.7848 26.9004 80.1634 27.166 78.127 27.166ZM78.127 26.1865C79.6322 26.1865 80.8441 26.026 81.7627 25.7051C82.6813 25.3841 83.373 24.9525 83.8379 24.4102C84.3138 23.8678 84.6348 23.2702 84.8008 22.6172C84.9668 21.9531 85.0498 21.2835 85.0498 20.6084C85.0498 18.5498 84.502 17.0889 83.4062 16.2256C82.3105 15.3623 80.5508 14.9307 78.127 14.9307C75.7031 14.9307 73.9434 15.3623 72.8477 16.2256C71.752 17.0889 71.2041 18.5498 71.2041 20.6084C71.2041 21.2835 71.2871 21.9531 71.4531 22.6172C71.6191 23.2702 71.9346 23.8678 72.3994 24.4102C72.8753 24.9525 73.5726 25.3841 74.4912 25.7051C75.4098 26.026 76.6217 26.1865 78.127 26.1865ZM91.7568 27C91.4359 27 91.2422 26.8893 91.1758 26.668C91.1094 26.4355 91.0762 26.1699 91.0762 25.8711V9.70117C91.0762 9.38021 91.1094 9.10352 91.1758 8.87109C91.2533 8.6276 91.458 8.50586 91.79 8.50586C92.0667 8.50586 92.2383 8.6276 92.3047 8.87109C92.3711 9.11458 92.4043 9.38021 92.4043 9.66797V25.8379C92.4043 26.1589 92.3656 26.4355 92.2881 26.668C92.2106 26.8893 92.0335 27 91.7568 27ZM103.395 27.166C102.266 27.166 101.236 27.0387 100.307 26.7842C99.388 26.5186 98.652 26.1035 98.0986 25.5391C97.5563 24.9635 97.2852 24.2109 97.2852 23.2812C97.2852 22.1966 97.5785 21.3499 98.165 20.7412C98.7516 20.1325 99.543 19.7064 100.539 19.4629C101.535 19.2083 102.653 19.0811 103.893 19.0811C105.309 19.0811 106.676 19.1585 107.993 19.3135C109.321 19.4684 110.34 19.7008 111.048 20.0107C111.048 18.5387 110.788 17.443 110.268 16.7236C109.758 15.9932 109.034 15.5117 108.093 15.2793C107.163 15.0358 106.067 14.9141 104.806 14.9141C103.079 14.9141 101.784 15.0137 100.921 15.2129C100.058 15.4121 99.3604 15.6003 98.8291 15.7773C98.7627 15.7995 98.7184 15.8105 98.6963 15.8105C98.5635 15.8105 98.4417 15.7441 98.3311 15.6113C98.2204 15.4674 98.165 15.3236 98.165 15.1797C98.165 15.0358 98.2314 14.9307 98.3643 14.8643C98.5524 14.7757 99.1888 14.6042 100.273 14.3496C101.358 14.084 103.029 13.9512 105.287 13.9512C106.648 13.9512 107.866 14.1172 108.939 14.4492C110.013 14.7702 110.854 15.4066 111.463 16.3584C112.083 17.2992 112.393 18.6992 112.393 20.5586V25.8379C112.393 26.0924 112.354 26.3525 112.276 26.6182C112.21 26.8727 112.022 27 111.712 27C111.457 27 111.28 26.8838 111.181 26.6514C111.092 26.4189 111.048 26.1257 111.048 25.7715V24.8418C110.727 25.1738 110.257 25.5225 109.637 25.8877C109.028 26.2419 108.22 26.5462 107.213 26.8008C106.206 27.0443 104.933 27.166 103.395 27.166ZM103.262 26.1865C105.442 26.1865 107.146 25.943 108.375 25.4561C109.604 24.9691 110.494 24.4987 111.048 24.0449V20.708C109.974 20.5531 108.829 20.4092 107.611 20.2764C106.405 20.1325 105.21 20.0605 104.025 20.0605C102.321 20.0605 100.993 20.2819 100.041 20.7246C99.0892 21.1673 98.6133 22.0195 98.6133 23.2812C98.6133 24.3327 99.0505 25.0798 99.9248 25.5225C100.799 25.9652 101.911 26.1865 103.262 26.1865ZM118.153 27C117.843 27 117.65 26.8783 117.572 26.6348C117.506 26.3913 117.473 26.1257 117.473 25.8379V15.2129C117.473 14.9583 117.517 14.7425 117.605 14.5654C117.705 14.3773 117.91 14.2832 118.22 14.2832C118.463 14.2832 118.618 14.3717 118.685 14.5488C118.762 14.7259 118.801 14.9473 118.801 15.2129V17.1387C119.044 16.2311 119.493 15.5505 120.146 15.0967C120.81 14.6429 121.529 14.3385 122.304 14.1836C123.078 14.0286 123.754 13.9512 124.329 13.9512C125.181 13.9512 125.807 13.9954 126.205 14.084C126.604 14.1725 126.958 14.2611 127.268 14.3496C127.5 14.416 127.616 14.582 127.616 14.8477C127.616 14.9915 127.566 15.1243 127.467 15.2461C127.378 15.3678 127.24 15.4287 127.052 15.4287C127.007 15.4287 126.974 15.4287 126.952 15.4287C126.941 15.4176 126.908 15.4066 126.853 15.3955C126.421 15.2738 126.006 15.1797 125.607 15.1133C125.209 15.0469 124.783 15.0137 124.329 15.0137C123.023 15.0137 121.861 15.2738 120.843 15.7939C119.836 16.3031 119.155 17.1055 118.801 18.2012V25.8379C118.801 26.1257 118.762 26.3913 118.685 26.6348C118.607 26.8783 118.43 27 118.153 27ZM138.59 27.166C136.553 27.166 134.932 26.9004 133.726 26.3691C132.519 25.8379 131.65 25.0853 131.119 24.1113C130.599 23.1263 130.339 21.9587 130.339 20.6084C130.339 18.262 131.003 16.5687 132.331 15.5283C133.67 14.4769 135.757 13.9512 138.59 13.9512C141.423 13.9512 143.504 14.4769 144.832 15.5283C146.171 16.5687 146.841 18.262 146.841 20.6084C146.841 21.9587 146.575 23.1263 146.044 24.1113C145.524 25.0853 144.66 25.8379 143.454 26.3691C142.248 26.9004 140.626 27.166 138.59 27.166ZM138.59 26.1865C140.095 26.1865 141.307 26.026 142.226 25.7051C143.144 25.3841 143.836 24.9525 144.301 24.4102C144.777 23.8678 145.098 23.2702 145.264 22.6172C145.43 21.9531 145.513 21.2835 145.513 20.6084C145.513 18.5498 144.965 17.0889 143.869 16.2256C142.773 15.3623 141.014 14.9307 138.59 14.9307C136.166 14.9307 134.406 15.3623 133.311 16.2256C132.215 17.0889 131.667 18.5498 131.667 20.6084C131.667 21.2835 131.75 21.9531 131.916 22.6172C132.082 23.2702 132.397 23.8678 132.862 24.4102C133.338 24.9525 134.035 25.3841 134.954 25.7051C135.873 26.026 137.085 26.1865 138.59 26.1865ZM151.473 27C151.163 27 150.975 26.9059 150.908 26.7178C150.842 26.5296 150.809 26.2751 150.809 25.9541V15.2959C150.809 14.9749 150.842 14.7038 150.908 14.4824C150.975 14.25 151.163 14.1338 151.473 14.1338C151.749 14.1338 151.926 14.25 152.004 14.4824C152.092 14.7148 152.137 14.9749 152.137 15.2627V25.9541C152.137 26.2419 152.104 26.4909 152.037 26.7012C151.982 26.9004 151.794 27 151.473 27ZM151.456 11.3945C151.168 11.3945 150.936 11.3115 150.759 11.1455C150.582 10.9684 150.493 10.7415 150.493 10.4648C150.493 10.1771 150.582 9.94466 150.759 9.76758C150.936 9.57943 151.168 9.48535 151.456 9.48535C151.733 9.48535 151.965 9.57943 152.153 9.76758C152.353 9.94466 152.452 10.1771 152.452 10.4648C152.452 10.7415 152.353 10.9684 152.153 11.1455C151.965 11.3115 151.733 11.3945 151.456 11.3945ZM163.459 27.166C162.131 27.166 160.908 26.9723 159.79 26.585C158.683 26.1976 157.792 25.5335 157.117 24.5928C156.442 23.652 156.104 22.3516 156.104 20.6914C156.104 18.2122 156.741 16.4691 158.014 15.4619C159.298 14.4548 161.113 13.9512 163.459 13.9512C165.008 13.9512 166.281 14.0674 167.277 14.2998C168.273 14.5322 169.059 14.8145 169.635 15.1465C170.221 15.4674 170.653 15.7718 170.93 16.0596V9.68457C170.93 9.38574 170.957 9.11458 171.013 8.87109C171.068 8.6276 171.256 8.50586 171.577 8.50586C171.898 8.50586 172.092 8.61654 172.158 8.83789C172.225 9.05924 172.258 9.3304 172.258 9.65137V26.1035C172.258 26.4577 172.186 26.6956 172.042 26.8174C171.909 26.9391 171.765 27 171.61 27C171.422 27 171.262 26.9447 171.129 26.834C170.996 26.7233 170.93 26.4909 170.93 26.1367V23.8291C170.753 24.5374 170.371 25.113 169.784 25.5557C169.209 25.9984 168.539 26.3359 167.775 26.5684C167.012 26.8008 166.243 26.9557 165.468 27.0332C164.693 27.1217 164.023 27.166 163.459 27.166ZM163.459 26.1865C164.123 26.1865 164.842 26.1423 165.617 26.0537C166.403 25.9541 167.161 25.7826 167.892 25.5391C168.622 25.2956 169.258 24.958 169.801 24.5264C170.354 24.0837 170.73 23.5137 170.93 22.8164V16.8398C170.598 16.5632 170.127 16.2809 169.519 15.9932C168.921 15.6943 168.13 15.4453 167.145 15.2461C166.171 15.0358 164.942 14.9307 163.459 14.9307C161.334 14.9307 159.796 15.39 158.844 16.3086C157.903 17.2161 157.433 18.6771 157.433 20.6914C157.433 22.0859 157.704 23.1872 158.246 23.9951C158.788 24.792 159.513 25.3564 160.421 25.6885C161.34 26.0205 162.352 26.1865 163.459 26.1865Z" fill="white"/>
</svg>
