<svg width="171" height="25" viewBox="0 0 171 25" fill="none" xmlns="http://www.w3.org/2000/svg">
<path d="M1.35352 19C1.03255 19 0.833333 18.8893 0.755859 18.668C0.678385 18.4355 0.639648 18.1589 0.639648 17.8379V1.40234C0.639648 1.14779 0.706055 0.9375 0.838867 0.771484C0.982747 0.594401 1.15983 0.505859 1.37012 0.505859C1.72428 0.505859 2.06185 0.743815 2.38281 1.21973L12.6758 16.6924L22.9688 1.21973C23.2786 0.743815 23.6162 0.505859 23.9814 0.505859C24.1917 0.505859 24.3633 0.594401 24.4961 0.771484C24.64 0.9375 24.7119 1.14779 24.7119 1.40234V17.8379C24.7119 18.1589 24.6732 18.4355 24.5957 18.668C24.5182 18.8893 24.319 19 23.998 19C23.7214 19 23.5332 18.8893 23.4336 18.668C23.3451 18.4355 23.3008 18.1589 23.3008 17.8379V3.0957L13.4893 17.5723C13.2236 17.9486 12.9525 18.1367 12.6758 18.1367C12.377 18.1367 12.1058 17.9486 11.8623 17.5723L2.05078 3.0957V17.8379C2.05078 18.1589 2.00098 18.4355 1.90137 18.668C1.81283 18.8893 1.63021 19 1.35352 19ZM37.0967 24.5449C35.8571 24.5449 34.8665 24.4619 34.125 24.2959C33.3835 24.1299 32.7969 23.9251 32.3652 23.6816C31.9447 23.4382 31.5905 23.2057 31.3027 22.9844C31.2142 22.9069 31.1699 22.8018 31.1699 22.6689C31.1699 22.3037 31.3415 22.1211 31.6846 22.1211C31.7731 22.1211 31.8672 22.1543 31.9668 22.2207C32.3874 22.5306 32.974 22.8294 33.7266 23.1172C34.4902 23.416 35.6136 23.5654 37.0967 23.5654C38.624 23.5654 39.8193 23.333 40.6826 22.8682C41.5459 22.4144 42.1546 21.6507 42.5088 20.5771C42.874 19.5036 43.0566 18.0371 43.0566 16.1777C42.8796 16.8529 42.5309 17.3896 42.0107 17.7881C41.5016 18.1865 40.904 18.4854 40.2178 18.6846C39.5426 18.8838 38.8509 19.0111 38.1426 19.0664C37.4453 19.1328 36.8145 19.166 36.25 19.166C34.6673 19.166 33.4001 18.9668 32.4482 18.5684C31.5075 18.1589 30.8268 17.4727 30.4062 16.5098C29.9967 15.5469 29.792 14.2354 29.792 12.5752V7.47852C29.792 7.19076 29.8252 6.9196 29.8916 6.66504C29.958 6.41048 30.1406 6.2832 30.4395 6.2832C30.7604 6.2832 30.9541 6.41048 31.0205 6.66504C31.0869 6.9196 31.1201 7.19076 31.1201 7.47852V12.5752C31.1201 14.014 31.2529 15.1429 31.5186 15.9619C31.7952 16.7809 32.2988 17.3564 33.0293 17.6885C33.7708 18.0205 34.8444 18.1865 36.25 18.1865C37.1022 18.1865 38.0042 18.1035 38.9561 17.9375C39.9189 17.7604 40.7822 17.445 41.5459 16.9912C42.3096 16.5374 42.8132 15.8789 43.0566 15.0156V7.47852C43.0566 7.19076 43.0954 6.9196 43.1729 6.66504C43.2503 6.41048 43.4219 6.2832 43.6875 6.2832C44.0085 6.2832 44.2021 6.41048 44.2686 6.66504C44.346 6.9196 44.3848 7.19076 44.3848 7.47852V15.6299C44.3848 17.8988 44.1357 19.6807 43.6377 20.9756C43.1507 22.2816 42.3704 23.2002 41.2969 23.7314C40.2344 24.2738 38.8343 24.5449 37.0967 24.5449ZM49.6973 19C49.3763 19 49.166 18.8783 49.0664 18.6348C48.9779 18.3802 48.9336 18.0814 48.9336 17.7383V1.12012C48.9336 0.799154 48.9945 0.616536 49.1162 0.572266C49.238 0.527995 49.4593 0.505859 49.7803 0.505859H55.292C56.8083 0.505859 58.1862 0.583333 59.4258 0.738281C60.6654 0.882161 61.7334 1.18099 62.6299 1.63477C63.5264 2.08854 64.2181 2.7526 64.7051 3.62695C65.1921 4.49023 65.4355 5.64681 65.4355 7.09668C65.4355 8.60189 65.1644 9.77507 64.6221 10.6162C64.0908 11.4463 63.3548 12.0495 62.4141 12.4258C61.4733 12.791 60.3942 13.0179 59.1768 13.1064C57.9593 13.1839 56.6644 13.2227 55.292 13.2227H50.3447V17.7383C50.3447 18.0592 50.3005 18.3525 50.2119 18.6182C50.1344 18.8727 49.9629 19 49.6973 19ZM50.3447 12.1934H55.292C57.3063 12.1934 58.9554 12.0938 60.2393 11.8945C61.5342 11.6842 62.486 11.2194 63.0947 10.5C63.7145 9.7806 64.0244 8.64616 64.0244 7.09668C64.0244 5.55827 63.7145 4.39616 63.0947 3.61035C62.4749 2.82454 61.5176 2.29329 60.2227 2.0166C58.9388 1.73991 57.2952 1.60156 55.292 1.60156H50.3447V12.1934ZM76.127 19.166C74.0905 19.166 72.4691 18.9004 71.2627 18.3691C70.0563 17.8379 69.1875 17.0853 68.6562 16.1113C68.1361 15.1263 67.876 13.9587 67.876 12.6084C67.876 10.262 68.54 8.56868 69.8682 7.52832C71.2074 6.47689 73.2936 5.95117 76.127 5.95117C78.9603 5.95117 81.041 6.47689 82.3691 7.52832C83.7083 8.56868 84.3779 10.262 84.3779 12.6084C84.3779 13.9587 84.1123 15.1263 83.5811 16.1113C83.0609 17.0853 82.1976 17.8379 80.9912 18.3691C79.7848 18.9004 78.1634 19.166 76.127 19.166ZM76.127 18.1865C77.6322 18.1865 78.8441 18.026 79.7627 17.7051C80.6813 17.3841 81.373 16.9525 81.8379 16.4102C82.3138 15.8678 82.6348 15.2702 82.8008 14.6172C82.9668 13.9531 83.0498 13.2835 83.0498 12.6084C83.0498 10.5498 82.502 9.08887 81.4062 8.22559C80.3105 7.3623 78.5508 6.93066 76.127 6.93066C73.7031 6.93066 71.9434 7.3623 70.8477 8.22559C69.752 9.08887 69.2041 10.5498 69.2041 12.6084C69.2041 13.2835 69.2871 13.9531 69.4531 14.6172C69.6191 15.2702 69.9346 15.8678 70.3994 16.4102C70.8753 16.9525 71.5726 17.3841 72.4912 17.7051C73.4098 18.026 74.6217 18.1865 76.127 18.1865ZM89.7568 19C89.4359 19 89.2422 18.8893 89.1758 18.668C89.1094 18.4355 89.0762 18.1699 89.0762 17.8711V1.70117C89.0762 1.38021 89.1094 1.10352 89.1758 0.871094C89.2533 0.627604 89.458 0.505859 89.79 0.505859C90.0667 0.505859 90.2383 0.627604 90.3047 0.871094C90.3711 1.11458 90.4043 1.38021 90.4043 1.66797V17.8379C90.4043 18.1589 90.3656 18.4355 90.2881 18.668C90.2106 18.8893 90.0335 19 89.7568 19ZM101.395 19.166C100.266 19.166 99.2363 19.0387 98.3066 18.7842C97.388 18.5186 96.652 18.1035 96.0986 17.5391C95.5563 16.9635 95.2852 16.2109 95.2852 15.2812C95.2852 14.1966 95.5785 13.3499 96.165 12.7412C96.7516 12.1325 97.543 11.7064 98.5391 11.4629C99.5352 11.2083 100.653 11.0811 101.893 11.0811C103.309 11.0811 104.676 11.1585 105.993 11.3135C107.321 11.4684 108.34 11.7008 109.048 12.0107C109.048 10.5387 108.788 9.44303 108.268 8.72363C107.758 7.99316 107.034 7.51172 106.093 7.2793C105.163 7.03581 104.067 6.91406 102.806 6.91406C101.079 6.91406 99.7842 7.01367 98.9209 7.21289C98.0576 7.41211 97.3604 7.60026 96.8291 7.77734C96.7627 7.79948 96.7184 7.81055 96.6963 7.81055C96.5635 7.81055 96.4417 7.74414 96.3311 7.61133C96.2204 7.46745 96.165 7.32357 96.165 7.17969C96.165 7.03581 96.2314 6.93066 96.3643 6.86426C96.5524 6.77572 97.1888 6.60417 98.2734 6.34961C99.3581 6.08398 101.029 5.95117 103.287 5.95117C104.648 5.95117 105.866 6.11719 106.939 6.44922C108.013 6.77018 108.854 7.40658 109.463 8.3584C110.083 9.29915 110.393 10.6992 110.393 12.5586V17.8379C110.393 18.0924 110.354 18.3525 110.276 18.6182C110.21 18.8727 110.022 19 109.712 19C109.457 19 109.28 18.8838 109.181 18.6514C109.092 18.4189 109.048 18.1257 109.048 17.7715V16.8418C108.727 17.1738 108.257 17.5225 107.637 17.8877C107.028 18.2419 106.22 18.5462 105.213 18.8008C104.206 19.0443 102.933 19.166 101.395 19.166ZM101.262 18.1865C103.442 18.1865 105.146 17.943 106.375 17.4561C107.604 16.9691 108.494 16.4987 109.048 16.0449V12.708C107.974 12.5531 106.829 12.4092 105.611 12.2764C104.405 12.1325 103.21 12.0605 102.025 12.0605C100.321 12.0605 98.9928 12.2819 98.041 12.7246C97.0892 13.1673 96.6133 14.0195 96.6133 15.2812C96.6133 16.3327 97.0505 17.0798 97.9248 17.5225C98.7992 17.9652 99.9115 18.1865 101.262 18.1865ZM116.153 19C115.843 19 115.65 18.8783 115.572 18.6348C115.506 18.3913 115.473 18.1257 115.473 17.8379V7.21289C115.473 6.95833 115.517 6.74251 115.605 6.56543C115.705 6.37728 115.91 6.2832 116.22 6.2832C116.463 6.2832 116.618 6.37174 116.685 6.54883C116.762 6.72591 116.801 6.94727 116.801 7.21289V9.13867C117.044 8.23112 117.493 7.55046 118.146 7.09668C118.81 6.6429 119.529 6.33854 120.304 6.18359C121.078 6.02865 121.754 5.95117 122.329 5.95117C123.181 5.95117 123.807 5.99544 124.205 6.08398C124.604 6.17253 124.958 6.26107 125.268 6.34961C125.5 6.41602 125.616 6.58203 125.616 6.84766C125.616 6.99154 125.566 7.12435 125.467 7.24609C125.378 7.36784 125.24 7.42871 125.052 7.42871C125.007 7.42871 124.974 7.42871 124.952 7.42871C124.941 7.41764 124.908 7.40658 124.853 7.39551C124.421 7.27376 124.006 7.17969 123.607 7.11328C123.209 7.04688 122.783 7.01367 122.329 7.01367C121.023 7.01367 119.861 7.27376 118.843 7.79395C117.836 8.30306 117.155 9.10547 116.801 10.2012V17.8379C116.801 18.1257 116.762 18.3913 116.685 18.6348C116.607 18.8783 116.43 19 116.153 19ZM136.59 19.166C134.553 19.166 132.932 18.9004 131.726 18.3691C130.519 17.8379 129.65 17.0853 129.119 16.1113C128.599 15.1263 128.339 13.9587 128.339 12.6084C128.339 10.262 129.003 8.56868 130.331 7.52832C131.67 6.47689 133.757 5.95117 136.59 5.95117C139.423 5.95117 141.504 6.47689 142.832 7.52832C144.171 8.56868 144.841 10.262 144.841 12.6084C144.841 13.9587 144.575 15.1263 144.044 16.1113C143.524 17.0853 142.66 17.8379 141.454 18.3691C140.248 18.9004 138.626 19.166 136.59 19.166ZM136.59 18.1865C138.095 18.1865 139.307 18.026 140.226 17.7051C141.144 17.3841 141.836 16.9525 142.301 16.4102C142.777 15.8678 143.098 15.2702 143.264 14.6172C143.43 13.9531 143.513 13.2835 143.513 12.6084C143.513 10.5498 142.965 9.08887 141.869 8.22559C140.773 7.3623 139.014 6.93066 136.59 6.93066C134.166 6.93066 132.406 7.3623 131.311 8.22559C130.215 9.08887 129.667 10.5498 129.667 12.6084C129.667 13.2835 129.75 13.9531 129.916 14.6172C130.082 15.2702 130.397 15.8678 130.862 16.4102C131.338 16.9525 132.035 17.3841 132.954 17.7051C133.873 18.026 135.085 18.1865 136.59 18.1865ZM149.473 19C149.163 19 148.975 18.9059 148.908 18.7178C148.842 18.5296 148.809 18.2751 148.809 17.9541V7.2959C148.809 6.97493 148.842 6.70378 148.908 6.48242C148.975 6.25 149.163 6.13379 149.473 6.13379C149.749 6.13379 149.926 6.25 150.004 6.48242C150.092 6.71484 150.137 6.97493 150.137 7.2627V17.9541C150.137 18.2419 150.104 18.4909 150.037 18.7012C149.982 18.9004 149.794 19 149.473 19ZM149.456 3.39453C149.168 3.39453 148.936 3.31152 148.759 3.14551C148.582 2.96842 148.493 2.74154 148.493 2.46484C148.493 2.17708 148.582 1.94466 148.759 1.76758C148.936 1.57943 149.168 1.48535 149.456 1.48535C149.733 1.48535 149.965 1.57943 150.153 1.76758C150.353 1.94466 150.452 2.17708 150.452 2.46484C150.452 2.74154 150.353 2.96842 150.153 3.14551C149.965 3.31152 149.733 3.39453 149.456 3.39453ZM161.459 19.166C160.131 19.166 158.908 18.9723 157.79 18.585C156.683 18.1976 155.792 17.5335 155.117 16.5928C154.442 15.652 154.104 14.3516 154.104 12.6914C154.104 10.2122 154.741 8.46908 156.014 7.46191C157.298 6.45475 159.113 5.95117 161.459 5.95117C163.008 5.95117 164.281 6.06738 165.277 6.2998C166.273 6.53223 167.059 6.81445 167.635 7.14648C168.221 7.46745 168.653 7.77181 168.93 8.05957V1.68457C168.93 1.38574 168.957 1.11458 169.013 0.871094C169.068 0.627604 169.256 0.505859 169.577 0.505859C169.898 0.505859 170.092 0.616536 170.158 0.837891C170.225 1.05924 170.258 1.3304 170.258 1.65137V18.1035C170.258 18.4577 170.186 18.6956 170.042 18.8174C169.909 18.9391 169.765 19 169.61 19C169.422 19 169.262 18.9447 169.129 18.834C168.996 18.7233 168.93 18.4909 168.93 18.1367V15.8291C168.753 16.5374 168.371 17.113 167.784 17.5557C167.209 17.9984 166.539 18.3359 165.775 18.5684C165.012 18.8008 164.243 18.9557 163.468 19.0332C162.693 19.1217 162.023 19.166 161.459 19.166ZM161.459 18.1865C162.123 18.1865 162.842 18.1423 163.617 18.0537C164.403 17.9541 165.161 17.7826 165.892 17.5391C166.622 17.2956 167.258 16.958 167.801 16.5264C168.354 16.0837 168.73 15.5137 168.93 14.8164V8.83984C168.598 8.56315 168.127 8.28092 167.519 7.99316C166.921 7.69434 166.13 7.44531 165.145 7.24609C164.171 7.03581 162.942 6.93066 161.459 6.93066C159.334 6.93066 157.796 7.38997 156.844 8.30859C155.903 9.21615 155.433 10.6771 155.433 12.6914C155.433 14.0859 155.704 15.1872 156.246 15.9951C156.788 16.792 157.513 17.3564 158.421 17.6885C159.34 18.0205 160.352 18.1865 161.459 18.1865Z" fill="#CFCFCF"/>
</svg>
